<svg width="732" height="217" viewBox="0 0 732 217" fill="none" xmlns="http://www.w3.org/2000/svg">
<path d="M139.094 59H129.594L129.656 54.0938H139.094C142.344 54.0938 145.052 53.4167 147.219 52.0625C149.385 50.6875 151.01 48.7708 152.094 46.3125C153.198 43.8333 153.75 40.9375 153.75 37.625V34.8438C153.75 32.2396 153.438 29.9271 152.812 27.9062C152.188 25.8646 151.271 24.1458 150.062 22.75C148.854 21.3333 147.375 20.2604 145.625 19.5312C143.896 18.8021 141.906 18.4375 139.656 18.4375H129.406V13.5H139.656C142.635 13.5 145.354 14 147.812 15C150.271 15.9792 152.385 17.4062 154.156 19.2812C155.948 21.1354 157.323 23.3854 158.281 26.0312C159.24 28.6562 159.719 31.6146 159.719 34.9062V37.625C159.719 40.9167 159.24 43.8854 158.281 46.5312C157.323 49.1562 155.938 51.3958 154.125 53.25C152.333 55.1042 150.167 56.5312 147.625 57.5312C145.104 58.5104 142.26 59 139.094 59ZM132.812 13.5V59H126.781V13.5H132.812ZM207.537 59.625C205.183 59.625 203.048 59.2292 201.131 58.4375C199.235 57.625 197.6 56.4896 196.225 55.0312C194.871 53.5729 193.829 51.8438 193.1 49.8438C192.371 47.8438 192.006 45.6562 192.006 43.2812V41.9688C192.006 39.2188 192.412 36.7708 193.225 34.625C194.037 32.4583 195.142 30.625 196.537 29.125C197.933 27.625 199.517 26.4896 201.287 25.7188C203.058 24.9479 204.892 24.5625 206.787 24.5625C209.204 24.5625 211.287 24.9792 213.037 25.8125C214.808 26.6458 216.256 27.8125 217.381 29.3125C218.506 30.7917 219.34 32.5417 219.881 34.5625C220.423 36.5625 220.694 38.75 220.694 41.125V43.7188H195.444V39H214.912V38.5625C214.829 37.0625 214.517 35.6042 213.975 34.1875C213.454 32.7708 212.621 31.6042 211.475 30.6875C210.329 29.7708 208.767 29.3125 206.787 29.3125C205.475 29.3125 204.267 29.5938 203.162 30.1562C202.058 30.6979 201.11 31.5104 200.319 32.5938C199.527 33.6771 198.912 35 198.475 36.5625C198.037 38.125 197.819 39.9271 197.819 41.9688V43.2812C197.819 44.8854 198.037 46.3958 198.475 47.8125C198.933 49.2083 199.59 50.4375 200.444 51.5C201.319 52.5625 202.371 53.3958 203.6 54C204.85 54.6042 206.267 54.9062 207.85 54.9062C209.892 54.9062 211.621 54.4896 213.037 53.6562C214.454 52.8229 215.694 51.7083 216.756 50.3125L220.256 53.0938C219.527 54.1979 218.6 55.25 217.475 56.25C216.35 57.25 214.965 58.0625 213.319 58.6875C211.694 59.3125 209.767 59.625 207.537 59.625ZM267.075 59.625C264.721 59.625 262.585 59.2292 260.669 58.4375C258.773 57.625 257.137 56.4896 255.762 55.0312C254.408 53.5729 253.367 51.8438 252.637 49.8438C251.908 47.8438 251.544 45.6562 251.544 43.2812V41.9688C251.544 39.2188 251.95 36.7708 252.762 34.625C253.575 32.4583 254.679 30.625 256.075 29.125C257.471 27.625 259.054 26.4896 260.825 25.7188C262.596 24.9479 264.429 24.5625 266.325 24.5625C268.742 24.5625 270.825 24.9792 272.575 25.8125C274.346 26.6458 275.794 27.8125 276.919 29.3125C278.044 30.7917 278.877 32.5417 279.419 34.5625C279.96 36.5625 280.231 38.75 280.231 41.125V43.7188H254.981V39H274.45V38.5625C274.367 37.0625 274.054 35.6042 273.512 34.1875C272.992 32.7708 272.158 31.6042 271.012 30.6875C269.867 29.7708 268.304 29.3125 266.325 29.3125C265.012 29.3125 263.804 29.5938 262.7 30.1562C261.596 30.6979 260.648 31.5104 259.856 32.5938C259.065 33.6771 258.45 35 258.012 36.5625C257.575 38.125 257.356 39.9271 257.356 41.9688V43.2812C257.356 44.8854 257.575 46.3958 258.012 47.8125C258.471 49.2083 259.127 50.4375 259.981 51.5C260.856 52.5625 261.908 53.3958 263.137 54C264.387 54.6042 265.804 54.9062 267.387 54.9062C269.429 54.9062 271.158 54.4896 272.575 53.6562C273.992 52.8229 275.231 51.7083 276.294 50.3125L279.794 53.0938C279.065 54.1979 278.137 55.25 277.012 56.25C275.887 57.25 274.502 58.0625 272.856 58.6875C271.231 59.3125 269.304 59.625 267.075 59.625ZM318.363 31.6875V72H312.55V25.1875H317.863L318.363 31.6875ZM341.144 41.8125V42.4688C341.144 44.9271 340.852 47.2083 340.269 49.3125C339.685 51.3958 338.831 53.2083 337.706 54.75C336.602 56.2917 335.238 57.4896 333.613 58.3438C331.988 59.1979 330.123 59.625 328.019 59.625C325.873 59.625 323.977 59.2708 322.331 58.5625C320.685 57.8542 319.29 56.8229 318.144 55.4688C316.998 54.1146 316.081 52.4896 315.394 50.5938C314.727 48.6979 314.269 46.5625 314.019 44.1875V40.6875C314.269 38.1875 314.738 35.9479 315.425 33.9688C316.113 31.9896 317.019 30.3021 318.144 28.9062C319.29 27.4896 320.675 26.4167 322.3 25.6875C323.925 24.9375 325.8 24.5625 327.925 24.5625C330.05 24.5625 331.935 24.9792 333.581 25.8125C335.227 26.625 336.613 27.7917 337.738 29.3125C338.863 30.8333 339.706 32.6562 340.269 34.7812C340.852 36.8854 341.144 39.2292 341.144 41.8125ZM335.331 42.4688V41.8125C335.331 40.125 335.154 38.5417 334.8 37.0625C334.446 35.5625 333.894 34.25 333.144 33.125C332.415 31.9792 331.477 31.0833 330.331 30.4375C329.185 29.7708 327.821 29.4375 326.238 29.4375C324.779 29.4375 323.508 29.6875 322.425 30.1875C321.363 30.6875 320.456 31.3646 319.706 32.2188C318.956 33.0521 318.342 34.0104 317.863 35.0938C317.404 36.1562 317.06 37.2604 316.831 38.4062V46.5C317.248 47.9583 317.831 49.3333 318.581 50.625C319.331 51.8958 320.331 52.9271 321.581 53.7188C322.831 54.4896 324.404 54.875 326.3 54.875C327.863 54.875 329.206 54.5521 330.331 53.9062C331.477 53.2396 332.415 52.3333 333.144 51.1875C333.894 50.0417 334.446 48.7292 334.8 47.25C335.154 45.75 335.331 44.1562 335.331 42.4688ZM428.781 59H419.281L419.344 54.0938H428.781C432.031 54.0938 434.74 53.4167 436.906 52.0625C439.073 50.6875 440.698 48.7708 441.781 46.3125C442.885 43.8333 443.438 40.9375 443.438 37.625V34.8438C443.438 32.2396 443.125 29.9271 442.5 27.9062C441.875 25.8646 440.958 24.1458 439.75 22.75C438.542 21.3333 437.062 20.2604 435.312 19.5312C433.583 18.8021 431.594 18.4375 429.344 18.4375H419.094V13.5H429.344C432.323 13.5 435.042 14 437.5 15C439.958 15.9792 442.073 17.4062 443.844 19.2812C445.635 21.1354 447.01 23.3854 447.969 26.0312C448.927 28.6562 449.406 31.6146 449.406 34.9062V37.625C449.406 40.9167 448.927 43.8854 447.969 46.5312C447.01 49.1562 445.625 51.3958 443.812 53.25C442.021 55.1042 439.854 56.5312 437.312 57.5312C434.792 58.5104 431.948 59 428.781 59ZM422.5 13.5V59H416.469V13.5H422.5ZM489.475 25.1875V59H483.663V25.1875H489.475ZM483.225 16.2188C483.225 15.2812 483.506 14.4896 484.069 13.8438C484.652 13.1979 485.506 12.875 486.631 12.875C487.735 12.875 488.579 13.1979 489.163 13.8438C489.767 14.4896 490.069 15.2812 490.069 16.2188C490.069 17.1146 489.767 17.8854 489.163 18.5312C488.579 19.1562 487.735 19.4688 486.631 19.4688C485.506 19.4688 484.652 19.1562 484.069 18.5312C483.506 17.8854 483.225 17.1146 483.225 16.2188ZM534.638 53.7812L543.888 25.1875H549.794L537.638 59H533.763L534.638 53.7812ZM526.919 25.1875L536.45 53.9375L537.106 59H533.231L520.981 25.1875H526.919ZM594.55 59.625C592.196 59.625 590.06 59.2292 588.144 58.4375C586.248 57.625 584.612 56.4896 583.237 55.0312C581.883 53.5729 580.842 51.8438 580.112 49.8438C579.383 47.8438 579.019 45.6562 579.019 43.2812V41.9688C579.019 39.2188 579.425 36.7708 580.237 34.625C581.05 32.4583 582.154 30.625 583.55 29.125C584.946 27.625 586.529 26.4896 588.3 25.7188C590.071 24.9479 591.904 24.5625 593.8 24.5625C596.217 24.5625 598.3 24.9792 600.05 25.8125C601.821 26.6458 603.269 27.8125 604.394 29.3125C605.519 30.7917 606.352 32.5417 606.894 34.5625C607.435 36.5625 607.706 38.75 607.706 41.125V43.7188H582.456V39H601.925V38.5625C601.842 37.0625 601.529 35.6042 600.987 34.1875C600.467 32.7708 599.633 31.6042 598.487 30.6875C597.342 29.7708 595.779 29.3125 593.8 29.3125C592.487 29.3125 591.279 29.5938 590.175 30.1562C589.071 30.6979 588.123 31.5104 587.331 32.5938C586.54 33.6771 585.925 35 585.487 36.5625C585.05 38.125 584.831 39.9271 584.831 41.9688V43.2812C584.831 44.8854 585.05 46.3958 585.487 47.8125C585.946 49.2083 586.602 50.4375 587.456 51.5C588.331 52.5625 589.383 53.3958 590.612 54C591.862 54.6042 593.279 54.9062 594.862 54.9062C596.904 54.9062 598.633 54.4896 600.05 53.6562C601.467 52.8229 602.706 51.7083 603.769 50.3125L607.269 53.0938C606.54 54.1979 605.612 55.25 604.487 56.25C603.362 57.25 601.977 58.0625 600.331 58.6875C598.706 59.3125 596.779 59.625 594.55 59.625Z" fill="white"/>
<path d="M63.488 197.64C52.0533 197.64 41.728 195.891 32.512 192.392C23.296 188.893 16 183.731 10.624 176.904C5.33333 169.992 2.688 161.715 2.688 152.072C2.688 142.515 5.376 134.323 10.752 127.496C16.128 120.669 23.3813 115.507 32.512 112.008C41.728 108.424 52.0533 106.632 63.488 106.632C74.8373 106.632 85.0773 108.424 94.208 112.008C103.424 115.507 110.677 120.669 115.968 127.496C121.344 134.323 124.032 142.515 124.032 152.072C124.032 161.715 121.344 169.992 115.968 176.904C110.677 183.731 103.424 188.893 94.208 192.392C85.0773 195.891 74.8373 197.64 63.488 197.64ZM63.488 190.088C67.072 190.088 69.7173 188.467 71.424 185.224C72.8747 182.749 73.856 178.355 74.368 172.04C74.624 168.712 74.752 162.056 74.752 152.072C74.752 142.003 74.5387 134.877 74.112 130.696C73.856 125.576 72.9173 121.693 71.296 119.048C69.5893 115.805 66.9867 114.184 63.488 114.184C59.904 114.184 57.216 115.805 55.424 119.048C53.9733 121.608 53.0347 125.491 52.608 130.696C52.2667 135.133 52.096 142.259 52.096 152.072C52.096 163.165 52.224 169.821 52.48 172.04C52.8213 177.928 53.76 182.323 55.296 185.224C57.088 188.467 59.8187 190.088 63.488 190.088ZM130.334 107.4H197.662C209.865 107.4 220.403 111.752 229.278 120.456C238.067 129.245 242.462 139.784 242.462 152.072C242.462 164.531 238.067 175.155 229.278 183.944C220.489 192.648 209.95 197 197.662 197H130.334V107.4ZM182.814 189.576C187.678 189.576 191.177 187.997 193.31 184.84C195.358 181.768 196.638 177.416 197.15 171.784C197.577 168.115 197.79 161.544 197.79 152.072C197.79 144.733 197.534 137.736 197.022 131.08C196.51 126.045 195.23 122.205 193.182 119.56C191.049 116.403 187.593 114.824 182.814 114.824H175.134V189.576H182.814ZM260.589 155.912L232.813 107.4H282.989L301.421 144.008L319.341 107.4H329.197L305.389 155.912V197H260.589V155.912ZM394.043 139.528C404.198 142.259 411.792 145.885 416.827 150.408C421.862 154.845 424.379 160.648 424.379 167.816C424.379 173.533 422.587 178.653 419.003 183.176C415.419 187.699 410.128 191.24 403.131 193.8C396.219 196.36 387.814 197.64 377.915 197.64C366.224 197.64 355.899 196.147 346.939 193.16C338.064 190.088 331.11 186.376 326.075 182.024L330.299 176.264C334.736 179.763 340.326 182.749 347.067 185.224C353.808 187.699 361.062 188.936 368.827 188.936C373.862 188.936 377.659 188.211 380.219 186.76C382.864 185.309 384.187 183.261 384.187 180.616C384.187 176.008 379.622 172.424 370.491 169.864L353.851 165C344.806 162.269 337.808 158.472 332.859 153.608C327.995 148.744 325.563 142.984 325.563 136.328C325.563 130.781 327.312 125.747 330.811 121.224C334.31 116.701 339.387 113.16 346.043 110.6C352.784 107.955 360.848 106.632 370.235 106.632C379.195 106.632 387.43 107.656 394.939 109.704C402.534 111.752 408.72 114.227 413.499 117.128L409.275 123.016C405.264 120.712 400.443 118.749 394.811 117.128C389.264 115.507 383.419 114.696 377.275 114.696C371.899 114.696 367.76 115.549 364.859 117.256C362.043 118.877 360.635 121.139 360.635 124.04C360.635 126.259 361.702 128.221 363.835 129.928C365.968 131.549 370.022 133.171 375.995 134.792L394.043 139.528ZM495.668 139.528C505.823 142.259 513.417 145.885 518.452 150.408C523.487 154.845 526.004 160.648 526.004 167.816C526.004 173.533 524.212 178.653 520.628 183.176C517.044 187.699 511.753 191.24 504.756 193.8C497.844 196.36 489.439 197.64 479.54 197.64C467.849 197.64 457.524 196.147 448.564 193.16C439.689 190.088 432.735 186.376 427.7 182.024L431.924 176.264C436.361 179.763 441.951 182.749 448.692 185.224C455.433 187.699 462.687 188.936 470.452 188.936C475.487 188.936 479.284 188.211 481.844 186.76C484.489 185.309 485.812 183.261 485.812 180.616C485.812 176.008 481.247 172.424 472.116 169.864L455.476 165C446.431 162.269 439.433 158.472 434.484 153.608C429.62 148.744 427.188 142.984 427.188 136.328C427.188 130.781 428.937 125.747 432.436 121.224C435.935 116.701 441.012 113.16 447.668 110.6C454.409 107.955 462.473 106.632 471.86 106.632C480.82 106.632 489.055 107.656 496.564 109.704C504.159 111.752 510.345 114.227 515.124 117.128L510.9 123.016C506.889 120.712 502.068 118.749 496.436 117.128C490.889 115.507 485.044 114.696 478.9 114.696C473.524 114.696 469.385 115.549 466.484 117.256C463.668 118.877 462.26 121.139 462.26 124.04C462.26 126.259 463.327 128.221 465.46 129.928C467.593 131.549 471.647 133.171 477.62 134.792L495.668 139.528ZM532.459 107.4H625.515V114.952H577.515V148.104H601.067V155.784H577.515V189.32H625.515V197H532.459V107.4ZM659.714 155.912L631.938 107.4H682.114L700.546 144.008L718.466 107.4H728.322L704.514 155.912V197H659.714V155.912Z" fill="white"/>
</svg>
